<svg width="739" height="177" viewBox="0 0 739 177" fill="none" xmlns="http://www.w3.org/2000/svg">
<g clip-path="url(#clip0_2462_1067)">
<path fill-rule="evenodd" clip-rule="evenodd" d="M530.08 17.0401C530.08 24.2301 524.12 30.0101 516.93 30.0101C509.57 30.0101 503.44 24.2301 503.43 17.0401C503.43 9.85007 509.57 4.07007 516.93 4.07007C524.12 4.07007 530.08 9.85007 530.08 17.0401ZM525.18 132.03H508.35C506.94 132.03 506.07 131.15 506.07 129.75V46.6701C506.07 45.2701 506.95 44.3901 508.35 44.3901H525.18C526.76 44.3901 527.46 45.2701 527.46 46.6701V129.75C527.46 131.15 526.58 132.03 525.18 132.03ZM344.4 78.74H387.34C388.39 78.74 389.09 78.04 388.92 76.98C387.35 66.82 377.53 59.63 365.26 59.63C353.34 59.63 343.87 66.82 342.47 76.81C342.3 77.86 343.17 78.74 344.4 78.74ZM320.73 87.68C320.73 61.57 339.66 42.46 365.43 42.46C390.49 42.46 411.17 59.46 409.43 91.19C409.43 93.12 408.02 94.52 405.92 94.52H343.87C342.64 94.52 342.11 95.39 342.29 96.62C343.17 107.84 353.34 116.43 365.78 116.43C374.89 116.43 382.6 112.22 386.46 105.21C386.98 103.99 387.68 103.46 388.91 103.46H405.56C406.96 103.46 407.84 104.51 407.31 106.26C402.23 122.73 386.1 133.95 367.35 133.95C339.84 133.95 320.73 115.02 320.73 87.68ZM306.89 132.03H236.43C235.03 132.03 234.15 131.15 234.14 129.74V119.4C234.14 118 234.49 116.6 235.54 115.37L279.01 64.5399C279.89 63.4899 279.19 62.0899 277.96 62.0899H237.82C236.42 62.0899 235.54 61.2099 235.54 59.8099V46.6699C235.54 45.2699 236.42 44.3899 237.82 44.3899H305.3C306.7 44.3899 307.58 45.2699 307.58 46.6699V56.6599C307.58 58.4099 307.06 59.6399 305.83 61.0399L262.19 111.87C261.32 112.92 262.19 114.32 263.42 114.32H306.89C308.29 114.32 309.17 115.2 309.17 116.6V129.75C309.17 131.15 308.29 132.03 306.89 132.03ZM485.28 44.3899H473.71C463.02 44.3899 456.18 48.2499 452.5 56.4799C451.45 58.7599 448.47 58.2299 448.47 55.9499V46.6599C448.47 45.2599 447.59 44.3799 446.19 44.3799H431.47C430.07 44.3799 429.19 45.2599 429.19 46.6599V129.74C429.19 131.14 430.07 132.02 431.47 132.02H448.3C449.88 132.02 450.58 130.97 450.58 129.74V70.4999C450.58 68.3999 452.16 66.2899 454.44 66.2899H485.29C486.69 66.2899 487.57 65.4099 487.57 64.0099V46.6599C487.56 45.2599 486.68 44.3899 485.28 44.3899ZM591.48 115.55C576.93 115.55 566.59 103.98 566.59 87.86C566.59 72.08 576.93 60.87 591.48 60.87C606.03 60.87 616.55 72.09 616.55 87.86C616.55 103.98 606.03 115.55 591.48 115.55ZM591.66 133.95C618.65 133.95 637.93 114.67 637.93 87.68C637.93 61.39 618.65 42.46 591.66 42.46C564.49 42.46 545.04 61.39 545.04 87.68C545.03 114.67 564.49 133.95 591.66 133.95ZM738.56 78.39V129.75C738.56 131.15 737.68 132.03 736.29 132.03H719.46C718.06 132.03 717.18 131.15 717.18 129.75V82.25C717.18 68.58 710.34 60.87 698.25 60.87C684.23 60.87 676.69 68.93 676.69 84.53V129.75C676.69 131.15 675.81 132.03 674.41 132.03H657.58C656.18 132.03 655.3 131.15 655.3 129.75V46.67C655.3 45.27 656.18 44.39 657.58 44.39H672.3C673.7 44.39 674.58 45.26 674.58 46.84V53.5C674.58 55.61 676.69 56.13 678.09 54.38C684.05 46.67 693.34 42.46 704.38 42.46C724.71 42.46 738.56 55.08 738.56 78.39Z" fill="white"/>
<path fill-rule="evenodd" clip-rule="evenodd" d="M48.6356 174L123.364 174C150.226 174 172 152.226 172 125.364L172 50.6356C172 23.7736 150.226 1.99998 123.364 1.99998L48.6356 1.99997C21.7737 1.99997 -2.12558e-06 23.7736 -4.47393e-06 50.6355L-1.10069e-05 125.364C-1.33553e-05 152.226 21.7736 174 48.6356 174ZM126.078 120.557C110.774 111.013 90.4406 99.2993 73.7261 90.2707C69.6691 88.0817 64.2402 88.8989 60.9129 93.6467C54.7058 102.49 47.2728 113.65 42.1942 122.445C40.083 126.006 42.9044 130.714 47.1268 130.714L122.848 130.714C128.306 130.714 130.592 123.807 126.078 120.557ZM98.1004 87.3342C81.9501 78.724 59.3009 65.6189 43.209 55.7148C38.2375 52.6501 40.2222 45.2852 46.0207 45.2949C55.5204 45.2949 70.9586 45.2925 86.3186 45.29C101.524 45.2876 116.652 45.2852 125.867 45.2852C130.508 45.2852 132.891 50.0914 130.916 53.4576C124.252 64.8114 116.761 76.2723 110.544 84.8241C107.771 88.6379 102.148 89.4941 98.1004 87.3342Z" fill="white"/>
</g>
<defs>
<clipPath id="clip0_2462_1067">
<rect width="739" height="177" fill="white"/>
</clipPath>
</defs>
</svg>
