<svg width="722" height="177" viewBox="0 0 722 177" fill="none" xmlns="http://www.w3.org/2000/svg">
<g clip-path="url(#clip0_2462_1079)">
<path fill-rule="evenodd" clip-rule="evenodd" d="M518.55 17.1001C518.55 24.3001 512.58 30.0901 505.38 30.0901C498.01 30.0901 491.86 24.3001 491.86 17.1001C491.86 9.90011 498.01 4.11011 505.38 4.11011C512.58 4.11011 518.55 9.90011 518.55 17.1001ZM513.63 132.25H496.78C495.37 132.25 494.5 131.37 494.5 129.97V46.7601C494.5 45.3601 495.38 44.4801 496.78 44.4801H513.63C515.21 44.4801 515.91 45.3601 515.91 46.7601V129.97C515.91 131.37 515.03 132.25 513.63 132.25ZM339.99 78.8801H383C384.06 78.8801 384.76 78.1801 384.58 77.1301C383 66.9501 373.17 59.75 360.88 59.75C348.94 59.75 339.46 66.9401 338.06 76.9501C337.88 78.0001 338.76 78.8801 339.99 78.8801ZM316.3 87.84C316.3 61.68 335.26 42.55 361.06 42.55C386.16 42.55 406.88 59.58 405.11 91.33C405.11 93.27 403.71 94.6701 401.6 94.6701H339.46C338.23 94.6701 337.7 95.55 337.88 96.78C338.76 108.02 348.94 116.62 361.4 116.62C370.52 116.62 378.25 112.41 382.11 105.39C382.64 104.16 383.34 103.63 384.57 103.63H401.25C402.66 103.63 403.54 104.68 403.01 106.44C397.92 122.95 381.77 134.18 362.99 134.18C335.43 134.18 316.3 115.22 316.3 87.84ZM306.75 132.25H236.18C234.77 132.25 233.89 131.37 233.92 129.97V119.61C233.92 118.2 234.27 116.8 235.32 115.57L278.85 64.66C279.73 63.6 279.03 62.2 277.8 62.2H237.6C236.2 62.2 235.32 61.32 235.32 59.92V46.75C235.32 45.35 236.2 44.47 237.6 44.47H305.18C306.58 44.47 307.46 45.35 307.46 46.75V56.76C307.46 58.52 306.93 59.75 305.7 61.15L261.99 112.06C261.11 113.12 261.99 114.52 263.22 114.52H306.75C308.15 114.52 309.03 115.4 309.03 116.8V129.97C309.03 131.37 308.15 132.25 306.75 132.25ZM477.65 44.48H466.06C455.35 44.48 448.51 48.34 444.82 56.59C443.77 58.87 440.78 58.35 440.78 56.06V46.76C440.78 45.36 439.9 44.48 438.5 44.48H423.75C422.35 44.48 421.47 45.36 421.47 46.76V129.97C421.47 131.37 422.35 132.25 423.75 132.25H440.6C442.18 132.25 442.88 131.2 442.88 129.97V70.64C442.88 68.53 444.46 66.43 446.74 66.43H477.63C479.03 66.43 479.91 65.55 479.91 64.15V46.77C479.93 45.36 479.05 44.48 477.65 44.48ZM577.13 115.75C562.56 115.75 552.2 104.16 552.2 88.0101C552.2 72.2101 562.56 60.9801 577.13 60.9801C591.7 60.9801 602.23 72.2101 602.23 88.0101C602.23 104.16 591.69 115.75 577.13 115.75ZM577.3 134.18C604.33 134.18 623.64 114.87 623.64 87.84C623.64 61.51 604.33 42.55 577.3 42.55C550.09 42.55 530.61 61.51 530.61 87.84C530.61 114.87 550.09 134.18 577.3 134.18ZM721.84 78.5401V129.97C721.84 131.37 720.96 132.25 719.55 132.25H702.7C701.3 132.25 700.42 131.37 700.42 129.97V82.4C700.42 68.7 693.57 60.9801 681.46 60.9801C667.42 60.9801 659.87 69.06 659.87 84.68V129.97C659.87 131.37 658.99 132.25 657.59 132.25H640.74C639.34 132.25 638.46 131.37 638.46 129.97V46.7601C638.46 45.3601 639.34 44.4801 640.74 44.4801H655.49C656.89 44.4801 657.77 45.36 657.77 46.94V53.6101C657.77 55.7201 659.88 56.25 661.28 54.49C667.25 46.76 676.55 42.55 687.61 42.55C707.97 42.55 721.84 55.1901 721.84 78.5401Z" fill="#2461ED"/>
<path fill-rule="evenodd" clip-rule="evenodd" d="M48.6356 174L123.364 174C150.226 174 172 152.226 172 125.364L172 50.6356C172 23.7736 150.226 1.99998 123.364 1.99998L48.6356 1.99997C21.7737 1.99997 -2.12558e-06 23.7736 -4.47393e-06 50.6355L-1.10069e-05 125.364C-1.33553e-05 152.226 21.7736 174 48.6356 174ZM126.078 120.557C110.774 111.013 90.4406 99.2993 73.7261 90.2707C69.6691 88.0817 64.2402 88.8989 60.9129 93.6467C54.7058 102.49 47.2728 113.65 42.1942 122.445C40.083 126.006 42.9044 130.714 47.1268 130.714L122.848 130.714C128.306 130.714 130.592 123.807 126.078 120.557ZM98.1004 87.3342C81.9501 78.724 59.3009 65.6189 43.209 55.7148C38.2375 52.6501 40.2222 45.2852 46.0207 45.2949C55.5204 45.2949 70.9586 45.2925 86.3186 45.29C101.524 45.2876 116.652 45.2852 125.867 45.2852C130.508 45.2852 132.891 50.0914 130.916 53.4576C124.252 64.8114 116.761 76.2723 110.544 84.8241C107.771 88.6379 102.148 89.4941 98.1004 87.3342Z" fill="#2461ED"/>
</g>
<defs>
<clipPath id="clip0_2462_1079">
<rect width="722" height="177" fill="white"/>
</clipPath>
</defs>
</svg>
