<svg width="157" height="29" viewBox="0 0 157 29" fill="none" xmlns="http://www.w3.org/2000/svg">
<path d="M32.0082 6.04706H46.2936V8.58612L37.0863 20.7172H46.5245V24H31.7774V21.4609L40.9847 9.32988H32.0082V6.04706ZM54.9487 24.1539C50.5631 24.1539 47.9214 21.5122 47.9214 17.4344C47.9214 13.3308 50.6144 10.6635 54.6922 10.6635C58.6419 10.6635 61.3092 13.1256 61.3605 16.9984C61.3605 17.3831 61.3348 17.8191 61.2579 18.2294H51.6915V18.4089C51.7685 20.2812 52.9739 21.4096 54.7948 21.4096C56.2567 21.4096 57.2826 20.7685 57.5904 19.5374H61.1553C60.745 22.1021 58.4624 24.1539 54.9487 24.1539ZM51.7685 15.8699H57.7186C57.4621 14.2541 56.3593 13.3565 54.7179 13.3565C53.1534 13.3565 51.9737 14.3054 51.7685 15.8699ZM63.8496 10.8174H67.1325L67.4659 12.7922C68.184 11.6125 69.2099 10.8174 71.2616 10.8174H71.8772V14.1002H70.4409C68.2866 14.1002 67.4659 15.5365 67.4659 17.5369V24H63.8496V10.8174ZM74.0053 10.8174H77.6472V24H74.0053V10.8174ZM73.7232 7.38071C73.7232 6.20094 74.6465 5.32894 75.8262 5.32894C77.006 5.32894 77.9293 6.20094 77.9293 7.38071C77.9293 8.53482 77.006 9.40682 75.8262 9.40682C74.6465 9.40682 73.7232 8.53482 73.7232 7.38071ZM87.0919 21.2045C89.118 21.2045 90.3747 19.64 90.3747 17.4087C90.3747 15.1774 89.118 13.6129 87.0919 13.6129C85.0658 13.6129 83.8347 15.1774 83.8347 17.4087C83.8347 19.64 85.0658 21.2045 87.0919 21.2045ZM80.1415 17.4087C80.1415 13.3565 82.8858 10.6635 87.0919 10.6635C91.298 10.6635 94.0422 13.3565 94.0422 17.4087C94.0422 21.4866 91.298 24.1539 87.0919 24.1539C82.8858 24.1539 80.1415 21.4609 80.1415 17.4087ZM96.5456 10.8174H99.7002L100.034 12.4588C100.88 11.4329 102.085 10.6635 104.112 10.6635C106.958 10.6635 109.395 12.1767 109.395 16.6906V24H105.779V17.0496C105.779 14.8184 104.932 13.6386 103.111 13.6386C101.239 13.6386 100.162 14.9722 100.162 17.2548V24H96.5456V10.8174Z" fill="#06003C"/>
<path d="M116.481 24L123.047 6.04706H127.664L134.178 24H130.049L128.664 20.076H121.842L120.457 24H116.481ZM122.868 16.9727H127.612L125.227 10.1506L122.868 16.9727ZM143.648 6.04706C147.546 6.04706 150.137 8.38094 150.137 12.0228C150.137 15.6391 147.546 17.9729 143.648 17.9729H140.186V24H136.338V6.04706H143.648ZM140.186 14.7671H143.289C145.084 14.7671 146.238 13.7155 146.238 12.0228C146.238 10.3045 145.084 9.25294 143.289 9.25294H140.186V14.7671ZM152.806 6.04706H156.653V24H152.806V6.04706Z" fill="#06003C"/>
<path d="M0.717885 6.21338C4.8012 8.86647 10.5484 12.377 14.6466 14.6835C15.6736 15.262 17.1005 15.0327 17.8041 14.0111C19.3816 11.7202 21.2826 8.65016 22.9737 5.60875C23.4748 4.70701 22.87 3.41956 21.6924 3.41956C16.9919 3.41956 6.22814 3.42216 1.43136 3.42216C-0.0400171 3.41956 -0.543647 5.39244 0.717885 6.21338Z" fill="#06003C"/>
<path d="M22.5117 23.0709C18.4395 20.6194 13.0288 17.6106 8.5812 15.2915C7.50166 14.7292 6.05709 14.9391 5.17171 16.1586C3.52004 18.4302 1.54218 21.2966 0.190813 23.5558C-0.370962 24.4704 0.379791 25.6799 1.50334 25.6799C6.82597 25.6799 15.9309 25.6799 21.6522 25.6799C23.1045 25.6799 23.7129 23.9056 22.5117 23.0709Z" fill="#06003C"/>
</svg>
